<svg width="700" height="700" viewBox="0 0 700 700" fill="none" xmlns="http://www.w3.org/2000/svg">
<path d="M350 0C161.094 0 6.34375 149.844 0.1875 338.594C212.969 360.156 487.031 360.156 699.844 338.594C699.375 322.031 697.656 305.469 694.688 289.062H500V260.938H550V235.938H600V210.938H671.25C664.219 194.688 655.937 179.063 646.562 164.062H525V135.938H600V114.062H570.781V89.0625H525V64.0625H450V35.9375H504.531C456.406 12.2812 403.594 0 350 0V0ZM249.531 100H250C305.156 100 350 144.844 350 200C350 255.156 305.156 300 250 300C194.844 300 150 255.156 150 200C150 145 194.531 100.266 249.531 100ZM0.406249 366.719C9.32812 553.281 163.125 700 350 700C366.563 697.813 375 700 418.437 689.062V660.938H510.625C523.281 654.375 535.625 647.031 547.344 639.062H525V614.062H475V585.938H608.437C621.719 571.406 633.906 555.625 644.531 539.062H625V514.062H500V485.938H525V460.938H600V435.938H650V410.938H694.531C697.188 396.25 698.75 381.563 699.531 366.719C485.781 388.125 214.219 388.125 0.406249 366.719V366.719Z" fill="#C78F22"/>
</svg>
